<?xml version="1.0" encoding="UTF-8" standalone="no"?>
<!-- Created with Inkscape (http://www.inkscape.org/) -->

<svg
   xmlns:dc="http://purl.org/dc/elements/1.1/"
   xmlns:cc="http://creativecommons.org/ns#"
   xmlns:rdf="http://www.w3.org/1999/02/22-rdf-syntax-ns#"
   xmlns:svg="http://www.w3.org/2000/svg"
   xmlns="http://www.w3.org/2000/svg"
   xmlns:sodipodi="http://sodipodi.sourceforge.net/DTD/sodipodi-0.dtd"
   xmlns:inkscape="http://www.inkscape.org/namespaces/inkscape"
   width="137.36404"
   height="411.35355"
   id="svg3019"
   version="1.1"
   inkscape:version="0.48.4 r9939"
   sodipodi:docname="New document 4">
  <defs
     id="defs3021" />
  <sodipodi:namedview
     id="base"
     pagecolor="#ffffff"
     bordercolor="#666666"
     borderopacity="1.0"
     inkscape:pageopacity="0.0"
     inkscape:pageshadow="2"
     inkscape:zoom="2.8"
     inkscape:cx="96.970855"
     inkscape:cy="275.64965"
     inkscape:document-units="px"
     inkscape:current-layer="layer1"
     showgrid="false"
     fit-margin-top="0"
     fit-margin-left="0"
     fit-margin-right="0"
     fit-margin-bottom="0"
     inkscape:window-width="1680"
     inkscape:window-height="998"
     inkscape:window-x="0"
     inkscape:window-y="0"
     inkscape:window-maximized="1" />
  <metadata
     id="metadata3024">
    <rdf:RDF>
      <cc:Work
         rdf:about="">
        <dc:format>image/svg+xml</dc:format>
        <dc:type
           rdf:resource="http://purl.org/dc/dcmitype/StillImage" />
        <dc:title></dc:title>
      </cc:Work>
    </rdf:RDF>
  </metadata>
  <g
     inkscape:label="Layer 1"
     inkscape:groupmode="layer"
     id="layer1"
     transform="translate(-528.46083,-458.11398)">
    <path
       style="fill:#000000"
       d="m 647.96336,867.43778 c -2.475,-1.21552 -5.08802,-2.99754 -5.8067,-3.96004 -0.71869,-0.9625 -2.14905,-1.75 -3.17858,-1.75 -3.27991,0 -5.01472,-2.79225 -5.01472,-8.07143 0,-3.62106 -0.53906,-5.46763 -2.03194,-6.96051 -1.11757,-1.11757 -2.46252,-4.30237 -2.98879,-7.07734 -0.52626,-2.77497 -1.16556,-5.38312 -1.42066,-5.79589 -0.87541,-1.41644 -9.55412,-46.5948 -11.0639,-57.59483 -1.88527,-13.73581 -3.22155,-20.73632 -5.06074,-26.51233 -0.79025,-2.48177 -2.08283,-10.04268 -2.8724,-16.80201 -1.34746,-11.53531 -1.77242,-12.97707 -6.92297,-23.48768 -3.01806,-6.15889 -5.79742,-12.89045 -6.17636,-14.95903 -0.78117,-4.26434 -2.06458,-5.61987 -2.84369,-3.00347 -1.72109,5.7797 -3.57523,20.64295 -4.08728,32.76452 -0.32527,7.7 -1.09559,16.73788 -1.71183,20.08419 -0.96384,5.23378 -0.86889,6.77128 0.67926,11 1.4956,4.08518 1.84897,8.75423 2.09126,27.63222 0.16036,12.49402 0.78681,28.01902 1.39211,34.5 1.30114,13.93133 2.02385,33.89397 1.33711,36.93349 -0.36684,1.62358 -2.27873,2.78641 -7.80983,4.75 -4.02825,1.43005 -8.04241,2.6001 -8.92035,2.6001 -0.87794,0 -3.27546,0.9 -5.32782,2 -6.49905,3.48329 -15.13387,2.4438 -17.12831,-2.06196 -1.72455,-3.89604 -0.72925,-6.42715 3.2744,-8.32701 1.83357,-0.87009 4.96702,-3.38981 6.96324,-5.59938 3.45345,-3.82255 3.63993,-4.39317 3.8448,-11.76453 0.34358,-12.36188 0.22533,-14.00219 -2.06285,-28.6169 -1.19435,-7.62837 -2.61521,-19.32837 -3.15748,-26 -1.48377,-18.25515 -3.87202,-43.06397 -6.02916,-62.63022 -1.06114,-9.625 -2.21313,-20.425 -2.55997,-24 -0.34685,-3.575 -1.33543,-7.61935 -2.19687,-8.98745 -0.98493,-1.56423 -1.47204,-4.26233 -1.31243,-7.2695 0.31491,-5.93326 -0.71924,-10.97066 -2.07962,-10.1299 -0.60185,0.37196 -0.87608,3.75924 -0.66863,8.25872 0.28816,6.24983 0.0824,7.62813 -1.1389,7.62813 -0.81983,0 -2.21041,-1.52445 -3.09019,-3.38766 -1.16932,-2.47645 -1.75866,-2.97311 -2.191,-1.84645 -0.87526,2.2809 0.2842,5.86585 2.93051,9.06084 2.72486,3.28982 3.03651,5.15403 0.71254,4.26224 -0.89583,-0.34376 -3.60211,-1.12191 -6.01397,-1.72922 -4.2326,-1.06578 -9.32223,-5.50563 -9.38458,-8.18648 -0.89439,-38.45343 -0.53722,-60.14423 1.16374,-70.67327 1.0218,-6.325 1.87887,-14.425 1.9046,-18 0.0257,-3.575 0.47775,-9.875 1.0045,-14 0.52674,-4.125 1.41458,-14.85629 1.97298,-23.84731 0.95376,-15.35704 1.88288,-20.15269 3.90444,-20.15269 0.46893,0 3.07696,-1.53009 5.79562,-3.40019 2.71866,-1.87011 7.60664,-4.75259 10.86221,-6.40551 3.25556,-1.65292 7.24089,-4.39784 8.85629,-6.09981 1.6154,-1.70197 3.3029,-3.09449 3.75,-3.09449 0.4471,0 0.81291,5.79832 0.81291,12.88517 0,8.21501 0.51683,14.64839 1.42595,17.75 0.78428,2.67565 1.81362,6.43983 2.28743,8.36483 0.48247,1.96018 1.4886,3.5 2.28691,3.5 0.73524,-10.99584 0.32538,-13.01584 2.50567,-23.34108 3.22439,-6.9263 2.60989,-10.56291 -1.62761,-9.6322 -3.53975,0.77746 -3.81337,-0.86797 -0.50483,-3.0358 2.79651,-1.83235 11.35898,-3.02586 15.0543,-2.09839 l 2.59501,0.65131 -3.51142,3.51141 c -4.03722,4.03722 -4.39502,3.38315 -1.5949,12.2811 2.26357,5.2803 3.31835,28.346 6.1333,15.42656 0.65946,-3.1696 2.02218,-9.36291 3.02826,-13.76291 2.12932,-9.31241 2.7718,-20.16094 1.56102,-26.35833 l -0.85149,-4.35833 6.3562,3.51242 c 4.00623,2.21383 10.05333,4.33662 16.3562,5.7417 13.37962,2.9827 19.05823,5.43668 20.36095,8.79888 0.56764,1.46501 1.72546,6.26366 2.57294,10.66366 6.35588,32.99908 8.58924,61.68798 6.61031,84.91355 -0.70698,8.29755 -1.39934,20.66177 -1.53855,27.47604 -0.20891,10.225 -0.53725,12.54859 -1.87939,13.29969 -1.01613,0.56865 -1.62626,2.21662 -1.62626,4.39253 0,5.11811 -2.43432,10.0743 -5.80405,11.81686 -3.43834,1.77804 -4.52772,4.95772 -3.23856,9.45276 0.50191,1.75004 0.98219,8.23689 1.0673,14.41523 0.0851,6.17834 0.58318,13.81539 1.10683,16.97122 0.64668,3.89727 0.60202,7.03796 -0.13921,9.79068 -0.90434,3.35847 -0.73488,5.37354 0.98919,11.76212 1.14427,4.24012 3.13833,10.40932 4.43124,13.70932 3.79735,9.69229 7.99138,41.40971 10.11568,76.5 0.82646,13.65192 1.93599,17.07678 7.64632,23.60229 4.47532,5.1142 4.91853,6.05436 4.60951,9.77798 l -0.3419,4.11973 -6.47117,0.21004 c -4.95799,0.16092 -7.52344,-0.30675 -10.97118,-2 z M 576.76037,516.71667 c -4.47057,-2.96118 -7.43014,-6.64294 -11.66484,-14.51129 -1.17741,-2.1877 -3.04874,-5.11075 -4.15851,-6.49566 -2.08216,-2.59838 -2.15937,-3.3513 -1.63887,-15.98198 0.38026,-9.2273 2.88167,-14.55394 8.61696,-18.34937 5.971,-3.95142 8.74549,-4.20155 15.15631,-1.36638 6.84775,3.0284 9.42857,6.20597 10.98644,13.52681 0.66583,3.12892 1.85508,6.21643 2.64277,6.86113 0.78769,0.64471 1.67129,2.95496 1.96355,5.1339 0.43015,3.20705 0.10439,4.3887 -1.71012,6.20321 -2.02138,2.02138 -2.19059,2.94112 -1.72316,9.3661 l 0.51834,7.1246 -5.73294,5.75 c -3.15312,3.1625 -6.40279,5.75 -7.2215,5.75 -0.8187,0 -3.5342,-1.35498 -6.03443,-3.01107 z"
       id="path3006"
       inkscape:connector-curvature="0"
       sodipodi:nodetypes="sssssssssssssssssssssssssssssssssssssssssssssssssssssccssscsccsscsssssssssssssssssscssssssssssssscsss" />
  </g>
</svg>
